<mxfile host="app.diagrams.net" modified="2023-10-25T11:18:56.801Z" agent="Mozilla/5.0 (Windows NT 10.0; Win64; x64) AppleWebKit/537.36 (KHTML, like Gecko) Chrome/118.0.0.0 Safari/537.36" version="22.0.8" etag="UgVofxLfwRZN3gtwt6x9" type="github">
  <diagram name="Page-1" id="6-BLsQL6_E54FKi304Ce">
    <mxGraphModel>
      <root>
        <mxCell id="0" />
        <mxCell id="1" parent="0" />
      </root>
    </mxGraphModel>
  </diagram>
</mxfile>
